<?xml version="1.0" encoding="UTF-8"?>
<svg width="83px" height="29px" viewBox="0 0 83 29" version="1.1" xmlns="http://www.w3.org/2000/svg" xmlns:xlink="http://www.w3.org/1999/xlink">
    <!-- Generator: sketchtool 59.1 (101010) - https://sketch.com -->
    <title>86C528C6-B858-4E77-8F89-67C10A2E25F1@1x</title>
    <desc>Created with sketchtool.</desc>
    <defs>
        <rect id="path-1" x="4.54747351e-13" y="0" width="85" height="48"/>
    </defs>
    <g id="Page-1" stroke="none" stroke-width="1" fill="none" fill-rule="evenodd">
        <g id="resized-logo-download" transform="translate(-1.000000, -9.000000)">
            <g id="IDP-Logo" transform="translate(-0.000000, 0.000000)">
                <mask id="mask-2" fill="white">
                    <use xlink:href="#path-1"/>
                </mask>
                <g id="Rectangle"/>
                <g id="Group-2" mask="url(#mask-2)">
                    <g transform="translate(1.950000, 6.000000)">
                        <polygon id="_441254200" fill="#000000" fill-rule="nonzero" points="14.7730293 5.58207493 23.060304 17.0159997 23.060304 21.0845917 14.7730293 9.64092773"/>
                        <rect id="Rectangle" fill="#FF6600" fill-rule="evenodd" x="0.111580005" y="4" width="5.60871813" height="17.3333333"/>
                        <polygon id="_441254008" fill="#000000" fill-rule="nonzero" points="30.7875533 21.3333333 30.7875533 4 36.3791133 4 36.3791133 21.3333333"/>
                        <path d="M0.836804882,25.4429163 L2.61711462,25.4429163 C3.08037552,25.4429163 3.47754221,25.4835263 3.80867855,25.5660789 C4.13994929,25.6485046 4.43989668,25.8016798 4.70991688,26.0268755 C5.41161086,26.6018251 5.76338525,27.4754474 5.76338525,28.6493988 C5.76338525,29.0367168 5.72867891,29.3895165 5.65820424,29.7093192 C5.58753065,30.0289324 5.4775053,30.3172642 5.33151339,30.5738682 C5.18406098,30.8306633 4.99559724,31.0602367 4.76492947,31.2614462 C4.58423053,31.4176043 4.38654267,31.542226 4.17133664,31.635249 C3.95778885,31.7297941 3.72712109,31.7958488 3.47906621,31.8334125 C3.23267125,31.8708499 2.95468749,31.8903934 2.64538207,31.8903934 L0.865072335,31.8903934 C0.617017459,31.8903934 0.42875314,31.8544154 0.303066626,31.7823962 C0.177513006,31.71025 0.0957569613,31.6096133 0.0581316508,31.4790261 C0.0189791508,31.3484396 -1.63424829e-13,31.1788288 -1.63424829e-13,30.9716545 L-1.63424829e-13,26.2430578 C-1.63424829e-13,25.962278 0.0660948768,25.7580853 0.197820593,25.632067 C0.32981109,25.5059221 0.543358542,25.4429125 0.836804042,25.4429125 L0.836804882,25.4429163 Z M1.36596174,26.4756793 L1.36596174,30.8530523 L2.40045197,30.8530523 C2.62819976,30.8530523 2.80558055,30.8470877 2.93418703,30.8350316 C3.06305864,30.823039 3.19644191,30.7944852 3.3347374,30.7480375 C3.47276677,30.7000668 3.59214862,30.6338853 3.69255167,30.5498739 C4.1493762,30.180513 4.37858398,29.5440788 4.37858398,28.6403848 C4.37858398,28.0039506 4.27818093,27.5265912 4.07724212,27.2098344 C3.8762361,26.8930133 3.6281829,26.6918665 3.3347374,26.6048726 C3.03943374,26.5192743 2.68467217,26.4756821 2.26700014,26.4756821 L1.36596006,26.4756821 L1.36596174,26.4756793 Z M12.5949202,31.1592787 L12.2732058,30.3502511 L9.53206034,30.3502511 L9.21014595,31.177427 C9.08299978,31.5000234 8.97629276,31.717794 8.88677325,31.830424 C8.79877958,31.9429899 8.65278733,31.9999715 8.45032132,31.9999715 C8.27917866,31.9999715 8.12694862,31.9400083 7.99495678,31.8198277 C7.86323174,31.6998378 7.79713619,31.5632237 7.79713619,31.4100479 C7.79713619,31.3230537 7.8129963,31.2314271 7.84272573,31.1382788 C7.8741141,31.0438606 7.92428252,30.9130831 7.99495611,30.7464562 L9.72046175,26.5598201 C9.76903747,26.4396398 9.82862894,26.2956641 9.89784254,26.1274501 C9.96685722,25.9579026 10.0390572,25.8183063 10.117694,25.7070723 C10.1961319,25.5960928 10.299653,25.5059255 10.4267995,25.4368888 C10.5539456,25.3679153 10.7110197,25.3333333 10.897824,25.3333333 C11.0877466,25.3333333 11.2464802,25.3679153 11.3736267,25.4368888 C11.5007728,25.5059258 11.6043616,25.5945064 11.6827994,25.7026947 C11.7597109,25.8106919 11.8256067,25.9278904 11.88062,26.0524485 C11.9339736,26.1770706 12.0015283,26.3436351 12.0847442,26.5508736 L13.8462707,30.7120632 C13.9843,31.0286304 14.0535131,31.2584577 14.0535131,31.4024332 C14.0535131,31.5512308 13.9874183,31.6877818 13.8571525,31.8124042 C13.7268209,31.9370262 13.5699452,31.9999715 13.386128,31.9999715 C13.2794206,31.9999715 13.1867819,31.9820143 13.1098042,31.9443864 C13.0330253,31.9084084 12.9686559,31.8587881 12.9167617,31.7958427 C12.8649344,31.7328337 12.8084618,31.6352429 12.748804,31.5045935 C12.6892125,31.3740069 12.6373188,31.259855 12.5949145,31.1592816 L12.5949202,31.1592787 Z M9.88994685,29.3699058 L11.9057025,29.3699058 L10.8883994,26.7098232 L9.88994349,29.3699058 L9.88994685,29.3699058 Z M20.283689,26.5206767 L18.7939014,26.5206767 L18.7939014,31.2044688 C18.7939014,31.4730667 18.7309256,31.6742119 18.6054388,31.8047991 C18.4799516,31.9354491 18.3165732,31.9999811 18.1172926,31.9999811 C17.9162866,31.9999811 17.7514493,31.9339898 17.6243028,31.8018175 C17.4971566,31.6698349 17.4327203,31.4700209 17.4327203,31.2044704 L17.4327203,26.5206783 L15.9429327,26.5206783 C15.7088796,26.5206783 15.5361443,26.4712484 15.4231994,26.3736574 C15.3085289,26.2744802 15.2520568,26.14548 15.2520568,25.9832934 C15.2520568,25.8167292 15.3117146,25.6846834 15.4294376,25.5884876 C15.547227,25.4908966 15.7183032,25.4429261 15.9429327,25.4429261 L20.2836957,25.4429261 C20.520867,25.4429261 20.6950624,25.492483 20.8111926,25.5931197 C20.9257969,25.6921066 20.983928,25.8226931 20.983928,25.9832925 C20.983928,26.145479 20.9243365,26.274479 20.8080727,26.3736564 C20.6919423,26.4712474 20.5177471,26.5206774 20.283694,26.5206774 L20.283689,26.5206767 Z M27.1906678,31.1592947 L26.8689533,30.3502672 L24.1278079,30.3502672 L23.8059607,31.1774431 C23.6787482,31.5000395 23.5721075,31.7178101 23.482588,31.8304401 C23.394528,31.943006 23.2485349,31.9999875 23.0460705,31.9999875 C22.8749934,31.9999875 22.7226978,31.9400244 22.5907732,31.8198438 C22.4589818,31.6998539 22.3928871,31.5632398 22.3928871,31.410064 C22.3928871,31.3230698 22.4087472,31.2314432 22.4384766,31.1382949 C22.469865,31.0438767 22.5200998,30.9130991 22.5907734,30.7464723 L24.316279,26.5598362 C24.3647884,26.4396559 24.4244462,26.2956802 24.4936598,26.1274661 C24.5626745,25.9579187 24.6348081,25.8183224 24.7134457,25.7070884 C24.7918836,25.5961089 24.8954047,25.5059416 25.0226184,25.4369049 C25.1497646,25.3679314 25.3068386,25.3333494 25.4935774,25.3333494 C25.6835,25.3333494 25.8422336,25.3679314 25.9694473,25.4369049 C26.0965935,25.5059419 26.2001151,25.5945225 26.2785528,25.7027108 C26.3555307,25.810708 26.4214265,25.9279065 26.4764389,26.0524646 C26.5297262,26.1770866 26.5972809,26.3436511 26.6805631,26.5508897 L28.4420224,30.7120792 C28.5800518,31.0286465 28.6492649,31.2584737 28.6492649,31.4024493 C28.6492649,31.5512468 28.5832364,31.6877979 28.4529043,31.8124202 C28.3226391,31.9370423 28.1656969,31.9999875 27.9818797,31.9999875 C27.8752387,31.9999875 27.7825992,31.9820303 27.7056214,31.9444025 C27.6288426,31.9084245 27.5644068,31.8588042 27.512579,31.7958588 C27.4606853,31.7328497 27.4042127,31.6352589 27.3446212,31.5046096 C27.2849634,31.374023 27.2331361,31.259871 27.1906654,31.1592976 L27.1906678,31.1592947 Z M24.4856944,29.3699219 L26.5015172,29.3699219 L25.4842142,26.7098392 L24.485691,29.3699219 L24.4856944,29.3699219 Z M38.6551394,29.3789322 L37.4039831,29.3789322 L37.4039831,31.2044829 C37.4039831,31.4656557 37.3395473,31.6622337 37.2107424,31.7974523 C37.0820699,31.9324172 36.9187569,31.9999952 36.7225307,31.9999952 C36.5184065,31.9999952 36.3521075,31.9340039 36.2264209,31.8004356 C36.1009337,31.6668033 36.0379584,31.4700349 36.0379584,31.213431 L36.0379584,26.2430758 C36.0379584,25.9563311 36.1071721,25.7506797 36.245268,25.6275161 C36.3834965,25.5045439 36.6016223,25.4429304 36.9030314,25.4429304 L38.6551494,25.4429304 C39.1732245,25.4429304 39.5703895,25.4804946 39.8498333,25.5569557 C40.1260916,25.6304979 40.3647229,25.7521376 40.5657273,25.9216851 C40.7667333,26.0928823 40.9190288,26.3000567 41.0225518,26.5462539 C41.1277328,26.7924527 41.1796265,27.0702493 41.1796265,27.3778701 C41.1796265,28.0354343 40.9677386,28.5324007 40.5454212,28.8715566 C40.1215127,29.2093181 39.4919528,29.3789282 38.6551504,29.3789282 L38.6551394,29.3789322 Z M38.3238031,26.4232902 L37.4039831,26.4232902 L37.4039831,28.3942109 L38.3238031,28.3942109 C38.6457175,28.3942109 38.914276,28.3628015 39.130942,28.2982063 C39.3459498,28.233611 39.5107888,28.127009 39.6253919,27.9813852 C39.738337,27.8342373 39.795009,27.6422277 39.795009,27.4050396 C39.795009,27.119691 39.706949,26.8884677 39.5327541,26.7084509 C39.3365263,26.5177108 38.9330559,26.4232918 38.3238031,26.4232918 L38.3238031,26.4232902 Z M46.9642343,25.3333559 C47.6642684,25.3333559 48.2640993,25.4685111 48.7665194,25.7400899 C49.2672074,26.0119232 49.6472524,26.3960685 49.9047309,26.8960792 C50.1622093,27.3960272 50.2908141,27.9828407 50.2908141,28.6583669 C50.2908141,29.156792 50.2201405,29.6087048 50.0789262,30.016899 C49.9375789,30.4236972 49.7271501,30.7780825 49.4445882,31.0768838 C49.1620262,31.3754939 48.8150283,31.6036712 48.4053198,31.7628119 C47.9940858,31.9204295 47.5231268,32 46.9924445,32 C46.465013,32 45.9923286,31.9190338 45.5748565,31.7552615 C45.1586445,31.5932661 44.8101865,31.3634389 44.5307445,31.067873 C44.2513007,30.772055 44.04094,30.4146865 43.8980664,29.9989418 C43.7551927,29.5831329 43.6845186,29.1327431 43.6845186,28.6494204 C43.6845186,28.1540412 43.7583112,27.6992094 43.9074882,27.2864463 C44.0565997,26.8720335 44.2716061,26.520694 44.554368,26.2310931 C44.83693,25.9399065 45.1791498,25.717694 45.5842128,25.5645181 C45.9892087,25.4099463 46.4492859,25.3333575 46.964241,25.3333575 L46.9642343,25.3333559 Z M48.906201,28.6494108 C48.906201,28.1766218 48.8261042,27.7682364 48.6675697,27.4214658 C48.5073761,27.0762165 48.2798265,26.8134581 47.9829973,26.636296 C47.6878936,26.4592624 47.3488592,26.3706813 46.9642343,26.3706813 C46.690896,26.3706813 46.4397229,26.4202382 46.2075279,26.5177023 C45.9765947,26.6168795 45.7773141,26.7594592 45.6093569,26.9470891 C45.4428589,27.1346564 45.3110677,27.3748261 45.2136502,27.6662038 C45.117826,27.9573904 45.0693166,28.2862038 45.0693166,28.6494103 C45.0693166,29.0157253 45.117826,29.3475219 45.2136502,29.6431504 C45.311067,29.9389058 45.4476361,30.185103 45.6233586,30.3802849 C45.7992794,30.5754669 46.0017454,30.7210923 46.2309532,30.8170969 C46.458701,30.9146879 46.7098758,30.9626584 46.9830797,30.9626584 C47.3329976,30.9626584 47.6533848,30.8786464 47.9468303,30.7120819 C48.2404741,30.5453265 48.4728673,30.287137 48.6456043,29.9373189 C48.8198669,29.5891522 48.906201,29.1597638 48.906201,28.6494106 L48.906201,28.6494108 Z M54.9715959,29.1327334 L54.4928061,29.1327334 L54.4928061,31.2044765 C54.4928061,31.476056 54.4298966,31.6772655 54.304409,31.8063924 C54.1787227,31.9354561 54.0138835,31.9999871 53.8114192,31.9999871 C53.5947532,31.9999871 53.4252688,31.9324096 53.3058876,31.7974443 C53.1866383,31.6622257 53.1268469,31.4656477 53.1268469,31.2044749 L53.1268469,26.2430677 C53.1268469,25.9622879 53.1929417,25.7580952 53.324733,25.6320769 C53.4566571,25.5059321 53.6700055,25.4429224 53.9636492,25.4429224 L56.1851302,25.4429224 C56.4913157,25.4429224 56.7535723,25.454915 56.9716983,25.4804866 C57.1898915,25.5045354 57.3862504,25.5554883 57.560513,25.6320762 C57.7723353,25.7176745 57.9591397,25.8393148 58.1224515,25.9968683 C58.2841714,26.1558819 58.4081989,26.3390717 58.4914147,26.5492919 C58.5761568,26.7578622 58.6185609,26.9800747 58.6185609,27.2158041 C58.6185609,27.6962078 58.4772136,28.0804173 58.1931925,28.367162 C57.9089723,28.6553669 57.4786913,28.858162 56.9026855,28.9781529 C57.1445022,29.1013154 57.3768299,29.284315 57.5981413,29.5245474 C57.8179272,29.7647171 58.0158133,30.0199266 58.1883488,30.2916957 C58.3611514,30.5634648 58.4960615,30.808078 58.5934774,31.0256574 C58.6893015,31.2448241 58.7378109,31.3950183 58.7378109,31.4760473 C58.7378109,31.5616457 58.7096078,31.6456574 58.6531352,31.7297966 C58.5965963,31.8124126 58.5196847,31.8784038 58.420742,31.9280244 C58.3217989,31.9759951 58.2088541,31.9999802 58.0800477,31.9999802 C57.927751,31.9999802 57.7974857,31.9653983 57.6938973,31.8964247 C57.5901762,31.8273877 57.5008548,31.7402032 57.4254043,31.635252 C57.3500854,31.530237 57.2480235,31.3740149 57.1193515,31.1684278 L56.5714147,30.2976602 C56.3751868,29.9779202 56.1993332,29.7347046 56.0453778,29.5681387 C55.8899621,29.4015103 55.7330869,29.2873589 55.5728932,29.2259353 C55.4143586,29.1643223 55.2133535,29.1327226 54.9716023,29.1327226 L54.9715959,29.1327334 Z M55.7533859,26.4232838 L54.4928061,26.4232838 L54.4928061,28.1959814 L55.7157589,28.1959814 C56.0439097,28.1959814 56.320168,28.1690138 56.5445977,28.1150152 C56.7675673,28.0610166 56.9386445,27.9678039 57.0564346,27.837217 C57.1741577,27.7066305 57.2338154,27.5280106 57.2338154,27.2984356 C57.2338154,27.1196879 57.1866997,26.9620702 57.0909417,26.8254555 C56.9968428,26.6889042 56.8650521,26.5868713 56.6954349,26.5192933 C56.5369002,26.4546981 56.2229504,26.4232888 55.7533842,26.4232888 L55.7533859,26.4232838 Z M65.4973248,26.5206844 L64.0075373,26.5206844 L64.0075373,31.2044765 C64.0075373,31.4730744 63.9445615,31.6742196 63.8190747,31.8048068 C63.6935875,31.9354568 63.5302091,31.9999888 63.3309285,31.9999888 C63.1299225,31.9999888 62.9650852,31.9339975 62.8379387,31.8018252 C62.7107925,31.6698426 62.6463562,31.4700285 62.6463562,31.2044781 L62.6463562,26.520686 L61.1565686,26.520686 C60.9225155,26.520686 60.7497801,26.471256 60.6368353,26.373665 C60.5221647,26.2744878 60.4656927,26.1454877 60.4656927,25.9833011 C60.4656927,25.8167369 60.5253505,25.684691 60.6430734,25.5884953 C60.7608629,25.4909043 60.9319391,25.4429338 61.1565686,25.4429338 L65.4973316,25.4429338 C65.7345029,25.4429338 65.9086983,25.4924907 66.0248285,25.5931274 C66.1394327,25.6921142 66.1975639,25.8227008 66.1975639,25.9833001 C66.1975639,26.1454867 66.1379724,26.2744867 66.0216431,26.3736641 C65.905579,26.4712551 65.731383,26.520685 65.4973316,26.520685 L65.4973248,26.5206844 Z M72.4043036,31.1593024 L72.0825892,30.3502749 L69.3414438,30.3502749 L69.0195294,31.1774508 C68.8923832,31.5000471 68.7857417,31.7178177 68.6962222,31.8304477 C68.6081622,31.9430137 68.4621691,31.9999952 68.2597047,31.9999952 C68.0886276,31.9999952 67.936332,31.940032 67.8044074,31.8198514 C67.672616,31.6998615 67.6065213,31.5632475 67.6065213,31.4100716 C67.6065213,31.3230774 67.6223814,31.2314508 67.6521108,31.1383025 C67.6834992,31.0438844 67.7336676,30.9131068 67.8044076,30.7464799 L69.5299132,26.5598438 C69.5784226,26.4396636 69.638014,26.2956878 69.7072285,26.1274738 C69.7763095,25.9579263 69.8484431,25.81833 69.9270799,25.7070961 C70.0055178,25.5961165 70.1090389,25.5059493 70.2362526,25.4369126 C70.3633988,25.367939 70.5204728,25.3333571 70.7072116,25.3333571 C70.8971342,25.3333571 71.0558678,25.367939 71.1830143,25.4369126 C71.3102268,25.5059496 71.4137493,25.5945302 71.492187,25.7027184 C71.5691649,25.8107157 71.6350607,25.9279142 71.6900076,26.0524723 C71.7433613,26.1770943 71.810916,26.3436588 71.8941973,26.5508974 L73.6556566,30.7120869 C73.793686,31.0286542 73.8628991,31.2584814 73.8628991,31.4024569 C73.8628991,31.5512545 73.7968706,31.6878056 73.6665385,31.8124279 C73.5362069,31.9370499 73.3793311,31.9999952 73.1955139,31.9999952 C73.0888729,31.9999952 72.9961678,31.982038 72.9192556,31.9444102 C72.8424768,31.9084322 72.778041,31.8588118 72.7261476,31.7958664 C72.6743203,31.7328574 72.6178477,31.6352666 72.5582563,31.5046172 C72.4985984,31.3740307 72.4467711,31.2598787 72.4043005,31.1593053 L72.4043036,31.1593024 Z M69.6993303,29.3699295 L71.7151531,29.3699295 L70.6977845,26.7098469 L69.6993286,29.3699295 L69.6993303,29.3699295 Z M77.8796222,26.1244954 L77.8796222,30.817107 L80.6490265,30.817107 C80.8686124,30.817107 81.0382296,30.8680599 81.1560181,30.9716789 C81.275201,31.0738384 81.3333333,31.2029021 81.3333333,31.357474 C81.3333333,31.516678 81.2752017,31.6442187 81.159138,31.7432691 C81.0430739,31.8408601 80.8717979,31.890417 80.6490265,31.890417 L77.3504653,31.890417 C77.0537017,31.890417 76.8386284,31.827408 76.7083636,31.7012625 C76.578032,31.5752446 76.5136629,31.3710531 76.5136629,31.0902717 L76.5136629,26.1244949 C76.5136629,25.8617349 76.5765724,25.6635071 76.7006,25.5315255 C76.8246273,25.3993525 76.9878074,25.3333619 77.1902717,25.3333619 C77.3943959,25.3333619 77.5608932,25.3979571 77.6880397,25.5285438 C77.8151859,25.6591304 77.8796222,25.8586907 77.8796222,26.1244965 L77.8796222,26.1244954 Z" id="_457836536" fill="#000000" fill-rule="nonzero"/>
                        <polygon id="_457836368" fill="#003399" fill-rule="nonzero" points="59.1759533 4.17895 59.1759533 13.664682 62.41694 13.663994 56.2487 19.82105 50.08306 13.664682 53.6771267 13.664682 53.6771267 4.17895"/>
                        <polygon id="_457836200" fill="#003399" fill-rule="evenodd" points="51.4983267 20.5720533 61.0016733 20.5720533 61.0016733 22.0946133 51.4983267 22.0946133"/>
                        <path d="M47.7389127,12.224904 C47.4769696,7.517656 43.2591127,3.775096 38.0944207,3.775096 L38.0944207,12.224904 L47.7389127,12.224904 Z" id="_457836032" fill="#FF6600" fill-rule="evenodd"/>
                        <path d="M38.0944207,13.1085573 L38.0944207,21.5581093 C43.25913,21.5581093 47.4767633,17.8158213 47.7389127,13.1085573 L38.0944207,13.1085573 Z" id="_457835864" fill="#33CC33" fill-rule="evenodd"/>
                        <polygon id="_457835696" fill="#000000" fill-rule="nonzero" points="63.5833333 21.3333333 70.6978565 4 73.3367244 4 80.9166667 21.3333333 78.122825 21.3333333 71.9608761 5.99836816 66.1875229 21.3333333"/>
                        <polygon id="_457835552" fill="#33CC33" fill-rule="nonzero" points="9.45422 21.3333333 9.45422 4 15.04578 4 15.04578 21.3333333"/>
                        <polygon id="_457835528" fill="#003399" fill-rule="nonzero" points="22.7875533 21.3333333 22.7875533 4 28.3791133 4 28.3791133 21.3333333"/>
                    </g>
                </g>
            </g>
        </g>
    </g>
</svg>